# xmcd
#
# Track frame offsets:
#	150
#	25045
#	49407
#
# Disc length: 990 seconds
#
# Revision: 1
# Processed by: cddbd v1.5PL3 Copyright (c) Steve Scherf et al.
# Submitted via: CDex 1.50Beta5
#
DISCID=1e03dc03
DTITLE=鬼束　ちひろ - Sign
DYEAR=2003
DGENRE=Pop
TTITLE0=Sign
TTITLE1=ダイニングチキン
TTITLE2=Sign (Instrumental)
EXTD=
EXTT0=
EXTT1=
EXTT2=
PLAYORDER=
